<svg class="svg-icon" style="width: 1em; height: 1em;vertical-align: middle;fill: currentColor;overflow: hidden;" viewBox="0 0 1024 1024" version="1.1" xmlns="http://www.w3.org/2000/svg"><path d="M597.333333 955.733333a17.066667 17.066667 0 0 1-12.066133-5.000533L529.066667 894.532267V938.666667a17.066667 17.066667 0 1 1-34.133334 0v-44.1344l-56.200533 56.200533A17.066667 17.066667 0 0 1 409.6 938.666667V768c0-4.539733 1.792-8.874667 5.000533-12.066133L494.933333 675.601067V126.532267l-56.200533 56.200533a17.0496 17.0496 0 1 1-24.132267-24.132267l85.333334-85.333333a17.066667 17.066667 0 0 1 10.922666-4.9664h0.017067a15.957333 15.957333 0 0 1 3.259733 0.1024h0.017067a17.0496 17.0496 0 0 1 9.984 4.949333l85.248 85.248a17.0496 17.0496 0 1 1-24.132267 24.132267L529.066667 126.532267v549.0688l80.3328 80.3328A16.9984 16.9984 0 0 1 614.4 768v170.666667a17.0496 17.0496 0 0 1-17.066667 17.066666z m-68.266666-109.4656l51.2 51.2v-122.402133l-51.2-51.2v122.402133z m-85.333334-71.202133v122.402133l51.2-51.2v-122.402133l-51.2 51.2z"  /></svg>